# ProBuilder 5.0.7
# https://unity3d.com/unity/features/worldbuilding/probuilder
# 15.07.2023 03:17:29

mtllib ./Plane.mtl
o Plane

g Plane
v -7.87912 12.48258 4.419398
v -6.052292 12.48258 0
v -3.93956 12.48258 4.419398
v -3.026146 12.48258 0
v 0 12.48258 0
v 0 12.48258 4.419398
v 0 13.08395 8.838797
v -4.852974 13.08395 8.838797
v -9.705948 13.08395 8.838797
v -4.852974 14.34352 13.25819
v -10.85899 14.34352 13.25819
v 0 14.34352 13.25819
v -4.852974 16.20447 17.67759
v 0 16.20447 17.67759
v -9.705948 16.20447 17.67759
v -16.91128 5.146214 13.25819
v -15.75824 4.324667 8.838796
v -12.73209 8.403623 8.838797
v -13.88513 9.74487 13.25819
v -12.73209 11.08612 17.67759
v -15.75824 5.967762 17.67759
v -13.93141 4.324667 4.419398
v -12.10459 4.324667 -0.4198074
v -10.90527 8.403623 4.419398
v -9.078439 8.403623 0
v -7.87912 16.20447 22.09699
v -3.93956 16.20447 22.09699
v 0 16.20447 22.09699
v -3.026146 16.20447 26.51639
v 0 16.20447 26.51639
v -6.052292 16.20447 26.51639
v -3.026146 14.34352 30.93578
v -6.052292 14.34352 30.93579
v 0 14.34352 30.93579
v -3.026146 12.48258 35.35518
v 0 12.48258 35.35518
v -6.052292 12.48258 35.35518
v -9.078439 9.744869 30.93578
v -12.10459 5.146214 30.93579
v -13.98815 5.967762 26.51639
v -10.96201 11.08612 26.51639
v -9.078439 8.403623 35.35518
v -12.10459 4.324667 35.35518
v -10.90527 11.08612 22.09699
v -13.93141 5.967762 22.09699
v -18.15688 4.324667 4.419398
v -18.15688 4.324667 0
v -16.04415 4.324667 4.419398
v -15.13073 4.324667 0
v -16.95756 4.324667 8.838796
v -20.07441 4.324667 8.838796
v -18.16688 5.146214 13.25819
v -20.57552 5.146214 13.25819
v -19.3762 5.967762 17.67759
v -22.99416 5.967762 17.67759
v -26.62781 4.768372E-07 13.25819
v -26.1267 4.768372E-07 8.838796
v -23.60166 2.573107 13.25819
v -23.10056 2.162334 8.838796
v -26.0203 2.983881 17.67759
v -29.04645 4.768372E-07 17.67759
v -24.20917 4.768372E-07 4.419398
v -24.20917 4.768372E-07 0
v -21.18303 2.162333 4.419398
v -21.18303 2.162334 0
v -24.40073 5.967761 22.09699
v -18.46278 5.967762 22.09699
v -17.54937 5.967762 26.51639
v -22.99416 5.967762 26.51639
v -20.57552 5.146214 30.93579
v -16.34005 5.146214 30.93578
v -15.13073 4.324667 35.35518
v -18.15688 4.324667 35.35518
v -29.04645 4.768372E-07 26.51639
v -26.0203 2.983881 26.51639
v -26.62781 4.768372E-07 30.93579
v -23.60166 2.573107 30.93578
v -21.18303 2.162334 35.35518
v -24.20917 4.768372E-07 35.35518
v -27.42687 2.983881 22.09699
v -30.45302 4.768372E-07 22.09699
v 2.840553 6.277849 3.878802
v 3.627617 6.27785 8.838797
v 2.05349 6.27785 -1.081193
v 4.106979 0.07312107 -2.162386
v 5.681107 0.07312107 3.338205
v 7.255234 0.07312107 8.838797
v 3.627617 8.138796 17.67759
v 3.627617 7.208323 13.25819
v 7.255234 0.07312107 13.25819
v 7.255234 0.07312107 17.67759
v 3.464752 8.138796 22.09699
v 3.301888 8.138796 26.51639
v 6.929504 0.07312107 22.09699
v 6.603775 0.07312107 26.51639
v 2.399896 7.208323 31.59474
v 1.497904 6.27785 36.6731
v 4.799791 0.07312107 32.2537
v 2.995808 0.07312107 37.99102
v -1.999401 6.277849 -2.036715
v -6.052292 6.27785 -2.992236
v -0.9726563 0.07312107 -4.073429
v -6.052292 0.07312107 -5.984472
v -9.078439 4.239247 -2.743347
v -12.10459 2.200645 -2.914265
v -9.078438 0.07487202 -5.528435
v -12.10459 0.07662296 -5.450462
v -15.13073 2.200645 -2.494457
v -18.15688 2.200645 -2.494457
v -18.15688 0.07662296 -4.988914
v -15.13073 0.07662296 -4.988914
v -17.96952 2.200645 38.22209
v -15.03705 2.200645 38.17316
v -12.10459 2.200645 38.12424
v -12.10459 0.07662296 40.89331
v -14.94337 0.07662296 40.99115
v -17.78215 0.07662296 41.089
v -9.078439 4.239247 38.12424
v -6.052292 6.27785 38.12424
v -6.052292 0.07312107 40.89331
v -9.078439 0.07487202 40.89331
v -2.277194 6.277849 37.39867
v -1.528242 0.07312107 39.44217
v -20.0494 1.467097 37.26646
v -20.99566 0.03831172 38.22209
v -21.18303 0.03831172 -2.494457
v -20.17431 1.467097 -1.662971

vt 1.224433 7.885092
vt -0.3959481 3.393627
vt -2.269923 7.439871
vt -3.080114 3.051634
vt -5.764279 2.70964
vt -5.764279 6.994649
vt -6.041983 11.4102
vt -1.737436 11.95865
vt 2.56711 12.5071
vt -2.319092 16.51708
vt 3.008191 17.19584
vt -6.623638 15.96863
vt -3.178451 21.20605
vt -7.482997 20.6576
vt 1.126096 21.7545
vt 12.62371 15.88333
vt 11.98036 11.28968
vt 7.412584 11.83312
vt 7.815951 16.53958
vt 6.173846 20.98543
vt 11.2216 20.21637
vt 10.35997 6.798212
vt 8.739594 1.899706
vt 5.792203 7.341652
vt 4.171823 2.850187
vt 0.9475286 12.38103
vt -3.335607 12.9533
vt -0.6647926 16.87459
vt -4.141768 17.33915
vt -7.618743 13.52556
vt -7.618743 17.8037
vt -4.947928 21.725
vt -7.618743 22.08184
vt -2.277114 21.36815
vt -4.07298 26.41507
vt -1.402166 26.05823
vt -6.743795 26.77192
vt -3.198032 31.10515
vt -5.868847 31.46199
vt -0.5272172 30.7483
vt 3.430768 26.71933
vt 8.2637 27.38044
vt 9.539839 22.69833
vt 4.462561 21.92219
vt 4.061372 31.29437
vt 8.649962 31.84043
vt 4.412484 17.65074
vt 9.489761 18.42688
vt 6.024805 13.15718
vt 11.10208 13.93332
vt 15.81936 5.890252
vt 15.81936 1.523431
vt 13.81764 5.78631
vt 12.95222 1.374552
vt 11.81592 5.682369
vt 10.08509 0.8108595
vt 14.68306 10.19807
vt 13.54676 10.13906
vt 17.63613 10.35141
vt 15.56602 14.74409
vt 17.84809 14.86259
vt 14.3764 14.68232
vt 13.02114 19.11212
vt 16.44898 19.29012
vt 19.87683 19.46811
vt 25.2286 14.41049
vt 24.75382 10.01901
vt 21.53835 14.63654
vt 21.19497 10.18521
vt 23.69849 19.18221
vt 27.52015 18.8963
vt 22.93706 5.557855
vt 22.93706 1.191034
vt 19.3782 5.724053
vt 19.3782 1.357233
vt 20.71055 19.59749
vt 19.39497 15.3106
vt 16.01107 15.51113
vt 15.15675 19.9266
vt 12.62717 15.71166
vt 10.91853 20.17775
vt 14.30243 24.34207
vt 10.9716 24.53945
vt 19.39497 24.04029
vt 17.4235 28.65955
vt 13.46203 28.8943
vt 9.500576 29.12905
vt 12.62165 33.44653
vt 9.79127 33.61426
vt 15.45202 33.27881
vt 27.16734 24.57916
vt 23.28115 24.30972
vt 24.90517 29.07805
vt 21.16433 28.8688
vt 19.04751 33.42788
vt 22.643 33.57695
vt 27.16734 15.84947
vt 23.28115 15.58004
vt 24.59673 19.86692
vt 28.48291 20.13635
vt -4.364617 11.63498
vt -4.276584 4.790249
vt -9.298636 4.790762
vt -8.729235 12.47081
vt 0 11.34574
vt 0.7454689 4.789737
vt 1.490938 -1.766268
vt -4.18855 -2.054479
vt -9.868038 -2.34269
vt -17.59872 15.22339
vt -13.19904 13.37372
vt -17.94102 6.395247
vt -13.54134 5.376637
vt -8.799359 12.06116
vt -9.141663 4.358027
vt -13.88365 -2.620441
vt -9.483967 -2.807989
vt -18.28332 -2.432893
vt -22.08207 14.57069
vt -21.95478 5.793253
vt -26.37718 5.793407
vt -26.49849 14.50665
vt -17.66566 14.63473
vt -17.53238 5.793099
vt -17.39911 -3.04853
vt -21.82749 -2.984185
vt -26.25587 -2.91984
vt -30.08556 11.19812
vt -30.16762 3.64181
vt -34.38349 9.102955
vt -35.31643 2.662687
vt -25.78762 13.29329
vt -25.01883 4.620934
vt -24.25003 -4.051419
vt -30.24969 -3.9145
vt -36.24936 -3.77758
vt 2.961701 11.95942
vt 2.374913 5.37487
vt 0 11.74971
vt -1.787814 5.409714
vt 5.923402 12.16914
vt 6.537639 5.340027
vt 1.788124 -1.209683
vt 7.151877 -1.489088
vt -3.575629 -0.930278
vt 5.522123 9.061591
vt 8.283186 4.9739
vt 4.297415 2.378177
vt 7.160347 0.119313
vt 10.87242 0.6755052
vt 9.851454 -2.350254
vt 6.020423 -4.756224
vt 8.8134 -5.396963
vt 3.072707 -4.305237
vt 14.97112 0.1068173
vt 11.95045 -0.3309767
vt 11.8228 2.94278
vt 14.84347 3.380574
vt 17.86415 3.498216
vt 17.9918 0.2244596
vt 18.11945 -3.049297
vt 15.09878 -3.166939
vt 12.0781 -3.636565
vt 15.18481 25.75269
vt 17.99619 29.34232
vt 18.21071 25.77598
vt 15.06397 29.28067
vt 12.15891 25.7294
vt 12.13174 29.21903
vt 12.10458 32.70866
vt 14.94313 32.80866
vt 17.78168 32.90866
vt 6.623633 -17.93988
vt 3.840629 -20.29518
vt 2.753128 -17.11418
vt 5.536131 -13.06256
vt 9.406636 -15.58459
vt 8.319135 -9.01094
vt 10.49414 -22.15825
vt 7.711136 -22.81721
vt 4.928132 -23.47617
vt -8.688763 -6.0213
vt -12.53242 -6.042312
vt -9.074312 0.5427443
vt -12.05517 0.7137789
vt -4.845104 -6.000287
vt -6.09345 0.3717098
vt -3.596758 -12.37228
vt -8.303213 -12.58534
vt -13.00967 -12.7984
vt 15.97804 22.17418
vt 12.25873 22.17418
vt 15.45989 24.44419
vt 13.34116 25.5792
vt 17.06046 25.57919
vt 14.42357 28.9842
vt 19.69735 22.17418
vt 19.69735 8.015372
vt 17.21291 4.980756
vt 15.97804 8.015372
vt 15.56152 5.992295
vt 14.72847 1.94614
vt 13.4936 4.980756
vt 12.25873 8.015372

vn 0 1 0
vn 0 0.9908684 -0.1348321
vn 0 0.9617023 -0.2740961
vn 0 0.9216244 -0.3880832
vn -0.7648396 0.5674289 -0.3050326
vn -0.7796342 0.5130388 -0.3591124
vn -0.7839776 0.5068947 -0.358381
vn -0.7822669 0.5147709 -0.3508124
vn -0.8342682 0.5489904 0.05105045
vn -0.8607584 0.5089099 0.01028074
vn -0.8298159 0.5460608 0.1149922
vn -0.8586949 0.5076898 0.06995782
vn -0.7685682 0.5701951 -0.2901389
vn -0.7482273 0.5869367 -0.3092916
vn -0.7622102 0.5654781 -0.3150716
vn -0.7933207 0.5129358 -0.3279316
vn -0.7422843 0.5506952 -0.3817706
vn 0 0.9216243 0.3880833
vn -0.7594261 0.4997409 0.4165707
vn -0.7633017 0.4512902 0.4622853
vn -0.7402734 0.487137 0.4633497
vn -0.692828 0.664586 0.2798479
vn -0.7902977 0.586316 0.1779415
vn -0.8138391 0.535547 0.2255114
vn -0.798233 0.5922032 0.1100881
vn -0.8239694 0.5422136 0.1645568
vn -0.8109926 0.4794866 0.3352367
vn -0.691548 0.6633582 0.2858622
vn -0.8607513 0.5089057 -0.01105083
vn 0 0.9831567 -0.1827647
vn -0.6460372 0.7597829 -0.07325307
vn -0.5756426 0.8056013 -0.1401501
vn -0.6411404 0.754024 -0.1427827
vn -0.5681372 0.7950978 -0.2122255
vn -0.6401705 0.6492382 -0.4106964
vn -0.5802841 0.6824529 -0.4444417
vn -0.6553971 0.6646805 -0.3586843
vn -0.5960999 0.7010534 -0.3913937
vn -0.5813807 0.8136317 0
vn -0.5637218 0.7889183 -0.2445929
vn 0 0.9831567 0.1827646
vn -0.6553971 0.6646805 0.3586843
vn -0.5960995 0.7010537 0.3913939
vn -0.6401703 0.6492381 0.4106968
vn -0.5802844 0.6824525 0.4444418
vn -0.5262793 0.7365182 0.4249366
vn -0.6105455 0.7180431 0.334138
vn -0.5409469 0.7570453 0.3664136
vn -0.6852166 0.6949224 -0.2180853
vn -0.6852165 0.6949224 0.2180851
vn 0.8952817 0.4222417 -0.1420655
vn 0.8806748 0.4693954 -0.06387281
vn 0.9309766 0.3338542 -0.1477295
vn 0.9092469 0.4162574 0
vn 0.9028002 0.3438065 -0.2583581
vn 0.8380857 0.4899898 -0.2398385
vn 0.8986966 0.4041976 -0.170202
vn 0.8873774 0.4511527 -0.09498704
vn 0.8840635 0.4494678 -0.1281034
vn 0.8781812 0.4680664 -0.09854806
vn 0.8632824 0.5047212 0
vn 0.9086214 0.4086615 -0.08604082
vn 0.891408 0.4532019 0
vn 0.9182871 0.3944663 0.03384092
vn 0.9254547 0.3788582 0
vn 0.9114888 0.409951 0.0335904
vn 0.9188133 0.3946923 0
vn 0.90995 0.4092591 0.06706739
vn 0.9167137 0.3937905 0.06756587
vn 0.9249169 0.3786381 0.03408524
vn 0.9348719 0.3271632 0.1377639
vn 0.9375568 0.2723069 0.2164169
vn 0.9138982 0.3741272 0.1575398
vn 0.917479 0.3292106 0.223277
vn 0.9011548 0.3689105 0.2276516
vn 0.9008015 0.329139 0.2832389
vn 0.9152179 0.28207 0.2877719
vn 0 0.3118793 -0.9501217
vn 0.2228517 0.2384644 -0.9452364
vn 0 0.4343782 -0.9007306
vn 0.2160811 0.3366055 -0.9165182
vn 0.3209431 0.4113989 -0.8530806
vn 0.3391129 0.269299 -0.9013769
vn -0.5052655 0.3748527 -0.777298
vn -0.4021866 0.5036702 -0.7645667
vn -0.5304048 0.4663645 -0.7079371
vn -0.43001 0.6873893 -0.5853097
vn -0.311281 0.5283015 -0.7899377
vn -0.01609779 0.7665551 -0.6419767
vn -0.3442873 0.4078222 -0.8456638
vn -0.1239808 0.5516317 -0.8248219
vn -0.08957636 0.758316 -0.6457035
vn 0 0.7613767 -0.6483098
vn -0.09840031 0.7576817 -0.6451634
vn -0.08871966 0.7636313 -0.639528
vn 0 0.8035055 0.5952974
vn 0.01003861 0.7986848 0.6016659
vn 0 0.7985646 0.6019091
vn 0.01015263 0.7934168 0.6085941
vn 0.02072611 0.7987249 0.6013393
vn 0.009924886 0.8037757 0.5948497
vn -0.4714048 0.6997638 0.5367571
vn -0.5981216 0.4437419 0.6673408
vn -0.3494884 0.5187885 0.7802028
vn -0.481464 0.3571946 0.8003777
vn 0.000320377 0.5537052 0.8327127
vn -0.2647482 0.3929981 0.8806026
vn 0.0004590994 0.793458 0.6086249
vn 0.1783581 0.3271557 0.9279857
vn 0 0.4075396 0.9131875
vn 0.182929 0.2463226 0.9517679
vn 0 0.3128157 0.9498138
vn 0.2944266 0.2660444 0.9178962
vn 0.2811049 0.3911069 0.8763649
vn -0.4895037 0.6850516 0.5395281
vn -0.4778955 0.668806 -0.5694861

usemtl Shader_Graphs_GroundShader
f 3/3/1 2/2/1 1/1/1
f 3/3/1 4/4/1 2/2/1
f 6/6/1 5/5/1 4/4/1
f 6/6/1 4/4/1 3/3/1
f 7/7/2 6/6/2 3/3/2
f 7/7/2 3/3/2 8/8/2
f 8/8/2 1/1/2 9/9/2
f 8/8/2 3/3/2 1/1/2
f 10/10/3 8/8/3 9/9/3
f 10/10/3 9/9/3 11/11/3
f 7/7/3 8/8/3 10/10/3
f 12/12/3 7/7/3 10/10/3
f 14/14/4 10/10/4 13/13/4
f 14/14/4 12/12/4 10/10/4
f 13/13/4 10/10/4 11/11/4
f 13/13/4 11/11/4 15/15/4
f 18/18/5 17/17/5 16/16/5
f 19/19/6 18/18/6 16/16/6
f 9/9/7 18/18/7 19/19/7
f 11/11/8 9/9/8 19/19/8
f 11/11/9 19/19/9 20/20/9
f 15/15/10 11/11/10 20/20/10
f 19/19/11 16/16/11 21/21/11
f 20/20/12 19/19/12 21/21/12
f 24/24/13 23/23/13 22/22/13
f 25/25/14 23/23/14 24/24/14
f 1/1/15 25/25/15 24/24/15
f 2/2/15 25/25/15 1/1/15
f 9/9/16 24/24/16 18/18/16
f 1/1/17 24/24/17 9/9/17
f 18/18/15 22/22/15 17/17/15
f 24/24/15 22/22/15 18/18/15
f 26/28/1 13/27/1 15/26/1
f 27/29/1 13/27/1 26/28/1
f 13/27/1 27/29/1 14/30/1
f 27/29/1 28/31/1 14/30/1
f 27/29/1 29/32/1 28/31/1
f 29/32/1 30/33/1 28/31/1
f 31/34/1 27/29/1 26/28/1
f 29/32/1 27/29/1 31/34/1
f 32/35/18 29/32/18 31/34/18
f 33/36/18 32/35/18 31/34/18
f 32/35/18 30/33/18 29/32/18
f 32/35/18 34/37/18 30/33/18
f 35/38/18 34/37/18 32/35/18
f 35/38/18 36/39/18 34/37/18
f 35/38/18 32/35/18 33/36/18
f 37/40/18 35/38/18 33/36/18
f 40/43/19 39/42/19 38/41/19
f 41/44/20 40/43/20 38/41/20
f 41/44/21 38/41/21 33/36/21
f 31/34/22 41/44/22 33/36/22
f 38/41/23 42/45/23 37/40/23
f 33/36/24 38/41/24 37/40/24
f 39/42/25 43/46/25 42/45/25
f 38/41/26 39/42/26 42/45/26
f 20/49/27 45/48/27 44/47/27
f 20/49/27 21/50/27 45/48/27
f 15/26/27 44/47/27 26/28/27
f 15/26/27 20/49/27 44/47/27
f 26/28/28 41/44/28 31/34/28
f 26/28/29 44/47/29 41/44/29
f 44/47/29 40/43/29 41/44/29
f 44/47/29 45/48/29 40/43/29
f 48/53/1 47/52/1 46/51/1
f 48/53/1 49/54/1 47/52/1
f 22/55/1 49/54/1 48/53/1
f 22/55/1 23/56/1 49/54/1
f 17/58/1 48/53/1 50/57/1
f 17/58/1 22/55/1 48/53/1
f 50/57/1 46/51/1 51/59/1
f 50/57/1 48/53/1 46/51/1
f 53/61/30 52/60/30 51/59/30
f 50/57/30 51/59/30 52/60/30
f 16/62/30 17/58/30 50/57/30
f 16/62/30 50/57/30 52/60/30
f 21/63/30 16/62/30 52/60/30
f 21/63/30 52/60/30 54/64/30
f 54/64/30 53/61/30 55/65/30
f 54/64/30 52/60/30 53/61/30
f 58/68/31 57/67/31 56/66/31
f 58/68/32 59/69/32 57/67/32
f 53/61/33 59/69/33 58/68/33
f 53/61/34 51/59/34 59/69/34
f 55/65/35 58/68/35 60/70/35
f 55/65/36 53/61/36 58/68/36
f 60/70/37 56/66/37 61/71/37
f 60/70/38 58/68/38 56/66/38
f 64/74/39 63/73/39 62/72/39
f 64/74/39 65/75/39 63/73/39
f 46/51/39 47/52/39 65/75/39
f 46/51/39 65/75/39 64/74/39
f 51/59/40 46/51/40 64/74/40
f 51/59/40 64/74/40 59/69/40
f 64/74/40 62/72/40 57/67/40
f 59/69/40 64/74/40 57/67/40
f 54/78/1 55/77/1 66/76/1
f 67/79/1 54/78/1 66/76/1
f 67/79/1 21/80/1 54/78/1
f 45/81/1 21/80/1 67/79/1
f 68/82/1 45/81/1 67/79/1
f 40/83/1 45/81/1 68/82/1
f 67/79/1 66/76/1 69/84/1
f 68/82/1 67/79/1 69/84/1
f 70/85/41 68/82/41 69/84/41
f 71/86/41 68/82/41 70/85/41
f 68/82/41 71/86/41 40/83/41
f 71/86/41 39/87/41 40/83/41
f 71/86/41 72/88/41 39/87/41
f 72/88/41 43/89/41 39/87/41
f 73/90/41 71/86/41 70/85/41
f 72/88/41 71/86/41 73/90/41
f 76/93/42 75/92/42 74/91/42
f 77/94/43 75/92/43 76/93/43
f 77/94/44 69/84/44 75/92/44
f 70/85/45 69/84/45 77/94/45
f 78/95/43 70/85/43 77/94/43
f 73/90/46 70/85/46 78/95/46
f 79/96/47 77/94/47 76/93/47
f 78/95/48 77/94/48 79/96/48
f 80/99/49 60/98/49 61/97/49
f 80/99/49 61/97/49 81/100/49
f 66/76/49 55/77/49 60/98/49
f 66/76/49 60/98/49 80/99/49
f 75/92/50 66/76/50 80/99/50
f 75/92/50 69/84/50 66/76/50
f 75/92/50 80/99/50 81/100/50
f 75/92/50 81/100/50 74/91/50
f 83/103/51 82/102/51 6/101/51
f 83/103/52 6/101/52 7/104/52
f 82/102/53 84/106/53 5/105/53
f 6/101/54 82/102/54 5/105/54
f 86/108/55 85/107/55 84/106/55
f 86/108/51 84/106/51 82/102/51
f 83/103/51 86/108/51 82/102/51
f 87/109/56 86/108/56 83/103/56
f 88/112/57 12/111/57 14/110/57
f 88/112/58 89/113/58 12/111/58
f 89/113/59 7/114/59 12/111/59
f 89/113/60 83/115/60 7/114/60
f 90/116/58 83/115/58 89/113/58
f 90/116/61 87/117/61 83/115/61
f 91/118/62 89/113/62 88/112/62
f 91/118/63 90/116/63 89/113/63
f 93/121/64 92/120/64 28/119/64
f 30/122/65 93/121/65 28/119/65
f 92/120/66 88/124/66 14/123/66
f 28/119/67 92/120/67 14/123/67
f 94/126/68 91/125/68 88/124/68
f 92/120/64 94/126/64 88/124/64
f 95/127/69 94/126/69 92/120/69
f 93/121/70 95/127/70 92/120/70
f 36/130/71 96/129/71 34/128/71
f 97/131/72 96/129/72 36/130/72
f 34/128/73 93/133/73 30/132/73
f 96/129/74 93/133/74 34/128/74
f 95/134/75 93/133/75 96/129/75
f 98/135/76 95/134/76 96/129/76
f 97/131/74 98/135/74 96/129/74
f 99/136/77 98/135/77 97/131/77
f 5/139/78 100/138/78 4/137/78
f 84/140/79 100/138/79 5/139/79
f 4/137/80 101/142/80 2/141/80
f 100/138/81 101/142/81 4/137/81
f 103/144/82 101/142/82 102/143/82
f 102/143/81 101/142/81 100/138/81
f 84/140/81 102/143/81 100/138/81
f 85/145/83 102/143/83 84/140/83
f 101/148/84 25/147/84 2/146/84
f 101/148/85 104/149/85 25/147/85
f 104/149/86 23/150/86 25/147/86
f 104/149/87 105/151/87 23/150/87
f 106/152/88 105/151/88 104/149/88
f 107/153/89 105/151/89 106/152/89
f 103/154/90 104/149/90 101/148/90
f 103/154/91 106/152/91 104/149/91
f 23/157/92 105/156/92 108/155/92
f 23/157/92 108/155/92 49/158/92
f 49/158/93 109/160/93 47/159/93
f 49/158/93 108/155/93 109/160/93
f 111/162/93 110/161/93 109/160/93
f 108/155/93 111/162/93 109/160/93
f 111/162/94 108/155/94 107/163/94
f 108/155/95 105/156/95 107/163/95
f 73/166/96 112/165/96 72/164/96
f 112/165/97 113/167/97 72/164/97
f 72/164/98 113/167/98 43/168/98
f 113/167/99 114/169/99 43/168/99
f 115/170/99 114/169/99 113/167/99
f 116/171/100 115/170/100 113/167/100
f 112/165/101 117/172/101 113/167/101
f 117/172/100 116/171/100 113/167/100
f 43/175/102 114/174/102 118/173/102
f 42/176/103 43/175/103 118/173/103
f 42/176/104 118/173/104 119/177/104
f 37/178/105 42/176/105 119/177/105
f 118/173/106 121/180/106 120/179/106
f 119/177/107 118/173/107 120/179/107
f 121/180/108 114/174/108 115/181/108
f 118/173/104 114/174/104 121/180/104
f 35/184/109 119/183/109 122/182/109
f 37/185/110 119/183/110 35/184/110
f 36/187/111 122/182/111 97/186/111
f 35/184/112 122/182/112 36/187/112
f 97/186/113 123/189/113 99/188/113
f 122/182/109 123/189/109 97/186/109
f 122/182/109 119/183/109 123/189/109
f 123/189/114 119/183/114 120/190/114
f 124/193/115 73/192/115 78/191/115
f 112/194/115 73/192/115 124/193/115
f 125/195/115 112/194/115 124/193/115
f 125/195/115 117/196/115 112/194/115
f 125/195/115 78/191/115 79/197/115
f 124/193/115 78/191/115 125/195/115
f 65/200/116 126/199/116 63/198/116
f 65/200/116 127/201/116 126/199/116
f 126/199/116 127/201/116 110/202/116
f 127/201/116 109/203/116 110/202/116
f 47/204/116 109/203/116 127/201/116
f 47/204/116 127/201/116 65/200/116

